<svg width="50" height="50" viewBox="0 0 50 50" fill="none" xmlns="http://www.w3.org/2000/svg">
<path id="Vector" d="M24.9958 49.9897C19.8134 49.9897 14.6341 49.996 9.45165 49.9897C3.71419 49.9834 0.0129034 46.266 0.006667 40.5016C0.000430633 33.7921 -0.00580581 27.0826 0.00978511 20.373C0.0191397 17.0889 1.32254 14.461 4.04783 12.5898C9.32068 8.96656 14.5748 5.32138 19.8539 1.71074C23.1841 -0.565531 26.7856 -0.57181 30.1127 1.70132C35.4261 5.3308 40.7177 8.99482 46.0155 12.6526C48.6192 14.4485 49.935 16.9853 49.9569 20.1281C50.0036 27.114 50.0254 34.0998 49.9537 41.0824C49.9007 46.2566 46.0778 49.9552 40.8892 49.9866C35.5945 50.0148 30.2967 49.9897 24.9958 49.9897ZM24.9553 41.1232C26.9384 41.1232 28.9185 41.1107 30.9016 41.1295C31.7467 41.1358 32.4264 40.8783 32.442 39.9396C32.4607 38.9255 31.7467 38.6743 30.858 38.6774C26.9322 38.69 23.0095 38.69 19.0837 38.6774C18.2387 38.6743 17.5589 38.9255 17.5433 39.8642C17.5246 40.8783 18.2387 41.1358 19.1274 41.1264C21.07 41.1107 23.0126 41.1232 24.9553 41.1232Z" fill="#F25F0D"/>
</svg>
