<svg width="214" height="57" viewBox="0 0 214 57" fill="none" xmlns="http://www.w3.org/2000/svg">
<g id="Group 913">
<path id="Vector" d="M9.90515 11.2539H0V55.6879H9.90515V11.2539Z" fill="#A9A4A4"/>
<path id="Vector_2" d="M74.1913 0H64.2861V55.6862H74.1913V0Z" fill="#F25F0D"/>
<path id="Vector_3" d="M27.3739 11.2539H17.4688V55.6879H27.3739V11.2539Z" fill="#A9A4A4"/>
<path id="Vector_4" d="M56.3563 11.2539H46.4512V55.6879H56.3563V11.2539Z" fill="#A9A4A4"/>
<path id="Vector_5" d="M91.9071 11.2539H82.002V37.9561H91.9071V11.2539Z" fill="#A9A4A4"/>
<path id="Vector_6" d="M120.889 11.2539H110.983V55.6879H120.889V11.2539Z" fill="#A9A4A4"/>
<path id="Vector_7" d="M56.3555 21.1398V11.2637L17.4686 11.2637V21.1398L56.3555 21.1398Z" fill="#A9A4A4"/>
<path id="Vector_8" d="M138.498 11.2539H128.593V55.6879H138.498V11.2539Z" fill="#A9A4A4"/>
<path id="Vector_9" d="M167.479 11.2539H157.574V55.6879H167.479V11.2539Z" fill="#A9A4A4"/>
<path id="Vector_10" d="M185.333 11.2539H175.428V55.6879H185.333V11.2539Z" fill="#A9A4A4"/>
<path id="Vector_11" d="M214 37.9707H204.095V55.7025H214V37.9707Z" fill="#A9A4A4"/>
<path id="Vector_12" d="M167.476 21.1398V11.2637L128.589 11.2637V21.1398L167.476 21.1398Z" fill="#A9A4A4"/>
<path id="Vector_13" d="M208.365 21.1301V11.2539L175.435 11.2539V21.1301L208.365 21.1301Z" fill="#A9A4A4"/>
<path id="Vector_14" d="M213.987 56.2492V46.373L175.415 46.373V56.2492L213.987 56.2492Z" fill="#A9A4A4"/>
<path id="Vector_15" d="M120.881 21.1281V11.252L81.994 11.252V21.1281L120.881 21.1281Z" fill="#A9A4A4"/>
<path id="Vector_16" d="M120.893 55.7004V45.8242L100.593 45.8242V55.7004H120.893Z" fill="#A9A4A4"/>
<path id="Vector_17" d="M91.9053 55.6867V45.8105L64.2512 45.8105V55.6867L91.9053 55.6867Z" fill="#F25F0D"/>
</g>
</svg>
